<svg xmlns="http://www.w3.org/2000/svg" width="512" height="512" viewBox="0 0 24 24"><g fill="none" fill-rule="evenodd" clip-rule="evenodd"><path fill="#020202" d="M23.948 7.466a10.2 10.2 0 0 0-1.678-4.475a9.7 9.7 0 0 0-1.439-1.359c-.879-.639-14.024-.589-17.21-.09a.34.34 0 0 0 .1.67c.759-.1 1.877-.17 3.166-.21a19.4 19.4 0 0 0-1 4.635l-1.507.35c-1.15.1-2.218-.18-3.407.07c.43-1.5.984-2.96 1.659-4.366a.3.3 0 0 0-.19-.35c-.25-.09-.43.09-.78.91C.854 5.118-.114 6.986.075 8.914c.28 2.917 3.826 3.556 5.574 1.129l.24-.36a2.647 2.647 0 0 0 2.827 2.548a3.89 3.89 0 0 0 3.336-2.168c1.159 2.697 4.775 3.536 5.904 0c1.546 2.07 4.753 1.69 5.773-.683a3.36 3.36 0 0 0 .22-1.914m-7.352-5.354c.019 1.531.14 3.06.36 4.575c-.81 0-3.716-.07-4.355-.1a31 31 0 0 0 0-4.605c1.418.01 2.796.07 3.995.13m-8.99-.12h4.355a28 28 0 0 0-.42 4.555c-2.577-.17-3.366-.36-4.524-.13c.17-.899.589-4.425.589-4.425M5.608 8.445c-.62.939-.999 1.768-1.998 2.137A1.998 1.998 0 0 1 .804 8.834a4.6 4.6 0 0 1 0-1.168a.2.2 0 0 0 .08 0c1.068-.19 2.387.19 3.556.12l1.358-.17a1.8 1.8 0 0 1-.15.819zm5.354 1.338c-.849 1.489-2.996 1.928-3.765.7a5.13 5.13 0 0 1-.41-2.997c1.798-.23 2.108.06 4.775.15c.05.849.16.44-.6 2.147m4.615 1.459a2.6 2.6 0 0 1-2.427-1.479c-.23-.41-.32-1.058-.73-1.448c-.09-.05-.09.07 0-.63c1.529 0 2.678 0 4.676-.11c.23 1.2-.41 3.497-1.529 3.667zm7.062-2.258a2.257 2.257 0 0 1-3.506.69a3.2 3.2 0 0 1-1.108-2.148l2.357-.1a.34.34 0 1 0 0-.68h-2.377a25 25 0 0 0-.69-4.554c1 .06 1.768.12 2.328.19c.29 0 .569.22.629.13a5.26 5.26 0 0 1 1.998 2.696c.42 1.23.889 2.558.37 3.776"/><path fill="#0c6fff" d="M3.021 14.428a.38.38 0 0 0-.58.27c0 .08-.279 2.757-.24 3.486c0 .42 0 .85.37 1.069c1.679.909 3.696.32 5.355.51c.769.07 1.868.289 2.327-.39c.32-.47.06-1.269.05-1.678c0-1.609.27-4.126-.999-4.276c0 0-2.997.06-3.916-.07c-.73-.01-1.459.051-2.177.18a.31.31 0 0 0-.2.34c.08.65 1.199 0 2.258.25c.27 0 .539.08.809.11c-.07.469-.16 1.268-.18 1.847a16 16 0 0 0-2.927.25v-.32c.08-1.678.11-1.488.05-1.578m6.333 4.345c-.05.14-1.129-.13-1.319-.15H6.827q.114-.714.14-1.438c2.067-.14 2.057-.06 2.207-.09c-.06.566.001 1.138.18 1.678m-.21-4.345c.097.645.124 1.298.08 1.948a10 10 0 0 0-2.257-.25a16 16 0 0 0-.29-1.848c2.208.15 2.287.33 2.467.15m-3.176 2.787c0 .23.06.47.08.7c.12.759.12.699.1.789a6.76 6.76 0 0 1-3.177-.21v-1.559c.09.04 2.467.26 2.997.28m8.69 1.119c-.869-.41-.999 2.098-.25 2.098a.34.34 0 0 0 .34-.34c.36-1.119-.01-1.718-.09-1.758"/><path fill="#020202" d="M13.03 20.821c.09-.999.19-2.247.36-3.246a2.547 2.547 0 0 1 2.567-2.188c2.297-.07 2.367 2.507 2.657 4.585c.13 1.049 1.089 1.289.999 0s-.31-2.088-.36-2.277a5.6 5.6 0 0 0-1.298-2.667a3.386 3.386 0 0 0-4.436.12c-1.148.998-1.278 2.167-1.428 3.605c-.08.75.07.82 0 1.389c-.13 1.049.68 1.528.94.68"/><path fill="#020202" d="M23.538 16.296c-.08-1.828-.37-2.917-.39-4.765a.34.34 0 0 0-.678 0c0 1.878.709 7.202.06 9.29c0 .14-.32.55-.2.66c-.1 0-14.604.28-16.562.29c-.999 0-3.906 0-4.775-.12c-.27-4.436-.31-1.619-.27-10.51a.3.3 0 0 0-.599 0c0 1.859-.28 7.303 0 8.99c0 .38-.06 1.779.22 2.169c.82 1.128 21.736.14 21.886.13c1.119-.1.999-.74 1.188-1.33c.18-.818.25-1.727.12-4.804"/></g></svg>